<?xml version="1.0" encoding="UTF-8"?><svg xmlns="http://www.w3.org/2000/svg" viewBox="0 0 1048.98 437.93"><defs><style>.d{fill:#0047ba;}</style></defs><g id="a"/><g id="b"><g id="c"><g><path class="d" d="M403.4,314.5l.75,.04c7.45,.43,9.15,2.25,9.68,5.43,.41,3.14,.96,7.45,.96,15.91v10.21c0,18.84-6,28-18.33,28-14.53,0-17.58-13.76-17.58-25.31v-23.74c0-9.55,.7-9.88,8.29-10.49l.73-.06v-5.07h-32.31v5.06l.72,.07c7.62,.7,8.41,.78,8.41,10.49v25.89c0,12.64,3,20.9,9.44,25.98,4.79,3.67,11.14,5.53,18.85,5.53s15.37-2.91,20.23-7.98c5.73-6.03,8.17-14.39,8.17-27.94v-10.64c0-9.08,.37-13.02,.74-15.69,.42-3.14,2.02-5.31,8.5-5.65l.75-.04v-5.09h-28.02v5.09Z"/><path class="d" d="M489.33,314.4l.75,.04c7.8,.43,9.36,2.23,9.89,6.03l.12,1.66c.25,3.2,.62,8.03,.62,16.12v19.72l-41.6-48.55h-19.64v4.96l.72,.06c4.8,.43,6.75,1.25,8.7,3.69,1.85,2.23,1.97,3.43,1.97,10.78v22.88c0,8.66-.44,13.4-.76,16.87l-.09,.99c-.47,4.25-2.51,5.75-8.4,6.17l-.74,.05v4.97h27.58v-4.98l-.75-.04c-7.58-.42-9.1-2.06-9.57-6.48-.26-2.62-.75-7.48-.75-17.54v-23.3l44.17,53.43h5.68v-43.66c0-10.25,.49-15.09,.85-17.85,.47-4.25,2.33-5.64,7.96-5.96l.75-.04v-4.98h-27.48v4.98Z"/><path class="d" d="M530.26,314.49l.73,.06c7.79,.61,8.51,.91,8.51,9.74v41.79c0,8.72-.72,9.03-8.52,9.74l-.72,.06v4.96h32.42v-4.96l-.72-.06c-7.7-.7-8.41-1.01-8.41-9.74v-41.79c0-8.83,.71-9.14,8.4-9.74l.73-.06v-5.07h-32.42v5.07Z"/><path class="d" d="M622.11,314.45l.7,.09c3.74,.46,6.21,.98,6.93,2.13,.64,1.02,.19,2.88-.93,6.19-3.28,10.4-9.33,26.37-14.07,38.52-5.11-13.04-12.81-33.22-15.69-41.14-.75-2.03-1.07-3.17-.68-3.81,.59-.99,3.37-1.49,6.28-1.89l.69-.09v-5.03h-31.56v5.06l.72,.07c6.04,.59,7.63,1.49,10.84,9.6,4.79,12.13,14.61,37.41,22.02,57.35l.19,.52h5.72l.19-.52c8.12-21.84,18.27-46.86,21.9-55.4,4.08-9.73,5.75-10.74,12.47-11.55l.7-.08v-5.04h-26.4v5.04Z"/><path class="d" d="M709.61,361.59c-1.86,4.6-3.76,7.99-5.66,10.08-2.17,2.45-5.19,3.28-11.98,3.28-4.09,0-7.91-.08-9.7-1.08-1.63-.94-2.18-2.99-2.18-8.12v-18.33h7.48c9.13,0,9.64,.35,10.93,7.51l.12,.65h5.11v-22.86h-5.1l-.12,.65c-1.31,6.93-2.02,7.41-10.93,7.41h-7.48v-22.52q0-2.86,3.29-2.86h6.23c6.32,0,9.11,.66,10.67,2.51,1.59,1.89,2.84,4.8,3.81,8.91l.17,.71,5.1-.75-.37-5.39c-.34-4.89-.67-9.6-.75-11.23l-.04-.75h-51.07v5.07l.73,.06c7.47,.62,8.08,.66,8.08,9.74v41.79c0,8.47-.54,9.01-9.58,9.74l-.73,.06v4.96h55.1l.17-.57c.98-3.27,3.14-13.31,3.79-17.62l.11-.76-4.94-.9-.24,.6Z"/><path class="d" d="M787.71,372.39c-2.32-2.32-4.56-5.52-8.39-11.37-2.94-4.41-6.68-10.94-8.59-14.54,8.78-3.93,13.23-10.02,13.23-18.11s-4.11-12.62-7.56-14.95c-4.37-2.84-9.85-4-18.91-4h-29.69v5.07l.73,.06c7.47,.6,8.29,.95,8.29,9.52v42.01c0,8.61-.99,9.04-8.73,9.74l-.72,.06v4.96h32.53v-4.96l-.72-.06c-7.96-.72-8.52-1.36-8.52-9.74v-15.43h1.68c3.76,0,5.49,.99,7.15,4.11l1.94,3.44c2.54,4.5,5.16,9.16,7.65,12.93,4.4,6.7,8.67,9.99,21.07,10.57,.63,0,1.28,.03,1.89,.06,.54,.03,1.04,.05,1.45,.05h.65l.91-4.57-.69-.21c-2.48-.75-4.4-2.09-6.65-4.64Zm-37.05-52.83c0-2.26,.19-3.26,.63-3.65,.31-.22,1.55-.92,4.7-.92s12.96,1.08,12.96,15c0,5.58-1.62,9.51-5.08,12.39-2.25,1.86-5.57,2.72-10.45,2.72h-2.75v-25.53Z"/><path class="d" d="M829.29,337.75c-8.68-4.29-13.09-7.64-13.09-14.01,0-5.99,4.18-10.17,10.16-10.17,8.45,0,11.9,7.45,13.96,13.95l.22,.69,4.85-1.06s-.68-5.27-.93-7.19c-.45-3.45-.82-6.22-1.09-8.77l-.06-.52-1.03-.32c-2.88-.89-8.23-2.56-14.21-2.56-14.38,0-24.43,8.68-24.43,21.1,0,11.61,9.7,17.6,18.8,22.3,7.9,4.11,12.79,7.93,12.79,14.34,0,6.87-4.14,11.13-10.81,11.13-12.07,0-16.98-15.97-17.5-17.79l-.22-.77-5.07,1.49,.08,.67c.71,5.65,2.13,15.06,3.16,17.8l.11,.29,.28,.14c1.47,.74,3.58,1.51,6.23,2.3,3.24,1.08,7,1.65,10.89,1.65,15.15,0,26.15-9.28,26.15-22.06,0-11.91-9.5-17.71-19.24-22.63Z"/><path class="d" d="M862.19,314.49l.73,.06c7.79,.61,8.51,.91,8.51,9.74v41.79c0,8.72-.72,9.03-8.52,9.74l-.72,.06v4.96h32.42v-4.96l-.72-.06c-7.7-.7-8.41-1.01-8.41-9.74v-41.79c0-8.83,.71-9.14,8.4-9.74l.73-.06v-5.07h-32.42v5.07Z"/><path class="d" d="M969.7,307.52v-.79h-3.62l-.24,.26c-1.72,1.92-2.81,2.42-5.32,2.42h-42.98c-2.9,0-3.95-.18-5.35-2.32l-.23-.36h-3.66l-.03,.76c-.13,3.32-.41,7.37-.71,11.66-.2,2.9-.41,5.9-.58,8.85l-.05,.84h5.11l.15-.6c1.4-5.61,2.54-8.54,3.95-10.14,1.2-1.62,2.66-2.68,11.72-2.68h4.04v50.67c0,8.37-.63,9.01-9.59,9.74l-.73,.06v4.96h35.11v-4.97l-.73-.06c-9.45-.72-10.01-1.27-10.01-9.74v-50.67h5.01c7.25,0,9.09,.74,10.68,2.52,1.49,1.69,2.73,4.83,4.02,10.19l.15,.65,5.02-.31-.07-.81c-.52-6.4-1.07-15.43-1.07-20.13Z"/><path class="d" d="M1022.9,309.41v5.05l.71,.08c2.84,.3,5.83,.75,6.45,1.82,.4,.69-.03,2.03-.87,3.97-2.34,5.72-6.96,14.34-10.34,20.63l-.65,1.22-.76-1.38c-3.93-7.1-8-14.43-11.62-21.4-.8-1.55-1.23-2.62-.95-3.16,.49-.93,3.37-1.42,5.51-1.71l.69-.09v-5.03h-30.38v5.04l.7,.09c5.93,.73,7.19,1.7,11.22,8.63,5.89,10.44,10,17.75,13.3,24.03,1.31,2.61,1.64,3.52,1.64,5.77v12.78c0,8.87-.53,9.44-9.47,10.06l-.74,.05v4.97h34.78v-4.97l-.73-.06c-9.43-.73-9.8-1.11-9.8-10.06v-14.07c0-2.98,.39-4.13,1.84-6.83,5.29-10.13,8.4-15.24,12.54-21.87,3.81-6.18,5.4-7.7,12.3-8.44l.71-.08v-5.05h-26.08Z"/></g><g><path class="d" d="M490.14,92.49c-20.22,2.38-24.08,5.95-35.38,23.79-13.08,21.11-22.89,37.46-37.16,63.92-3.87,7.73-4.76,11.3-4.76,19.03v40.14c0,25.27,2.38,27.35,29.43,29.14v8.62h-86.22v-8.62c26.17-1.78,28.84-3.87,28.84-29.14v-38.36c0-6.24-1.19-9.22-5.95-17.54-9.81-17.84-20.81-37.46-37.17-65.71-11.89-20.22-15.46-23.49-33-25.27v-8.62h73.74v8.62c-21.11,2.97-20.22,6.24-14.87,16.35,12.19,23.19,26.17,47.27,38.95,69.57,10.41-19.33,26.46-48.17,34.49-66.3,6.54-14.27,5.65-16.95-17.24-19.62v-8.62h66.3v8.62Z"/><path class="d" d="M667.34,178.12c0,64.22-45.19,103.47-99.9,103.47s-97.52-42.22-97.52-99.31c0-52.92,37.46-102.87,100.79-102.87,51.44,0,96.63,39.25,96.63,98.71Zm-164.12-3.57c0,54.71,29.14,96.04,70.47,96.04,32.11,0,60.36-27.65,60.36-84.44,0-62.14-30.92-95.74-69.28-95.74-32.41,0-61.55,29.14-61.55,84.14Z"/><path class="d" d="M856.46,277.62c-8.3,.33-16.18-1.07-23.65-4.23-7.47-3.15-14.44-7.22-20.91-12.2-6.47-4.98-12.45-10.62-17.92-16.93-5.48-6.3-10.45-12.52-14.93-18.67-4.48-6.14-8.55-11.78-12.2-16.93-3.66-5.14-6.81-9.04-9.46-11.7-3.65,.67-7.96,1.17-12.94,1.49-4.98,.34-9.79,.34-14.44,0v46.3c0,4.98,.25,8.96,.75,11.95,.5,2.99,1.74,5.4,3.73,7.22,1.99,1.83,4.81,2.99,8.46,3.48,3.65,.5,8.46,.75,14.44,.75v8.96l-32.86-1h-19.91l-24.89,1v-8.96c4.98,0,8.96-.25,11.95-.75,2.99-.5,5.23-1.49,6.72-2.99,1.49-1.49,2.49-3.73,2.99-6.72,.5-2.99,.75-6.8,.75-11.45V118.31c0-10.95-1.67-17.75-4.98-20.41-3.32-2.65-9.13-3.98-17.43-3.98v-8.96l28.88,.5,25.89-1c28.21-1.32,49.78,2.33,64.72,10.95,14.93,8.64,22.73,23.4,23.4,44.31,.33,7.64-.67,14.19-2.99,19.66-2.33,5.48-5.4,10.21-9.21,14.19-3.82,3.98-7.89,7.3-12.2,9.96-4.32,2.66-8.46,4.98-12.45,6.97,6.97,8.3,13.69,16.76,20.16,25.39,6.47,8.63,13.11,16.68,19.91,24.15,6.8,7.47,13.85,13.78,21.16,18.92,7.3,5.15,15.1,8.21,23.4,9.21v8.96l-13.94,.5Zm-60.74-137.41c-.67-16.93-6.81-29.29-18.42-37.09-11.62-7.79-27.38-10.03-47.3-6.72v88.62c24.89,.67,42.23-3.07,52.02-11.2,9.79-8.13,14.35-19.33,13.69-33.6Z"/><path class="d" d="M1000.42,277.13c-21.41-24.38-45.49-54.71-71.06-85.93-6.84-8.32-11-9.51-15.76-8.62v55.9c0,25.87,2.68,28.25,27.06,30.03v8.62h-79.39v-8.62c22.3-1.78,24.98-4.16,24.98-30.03V122.81c0-26.76-2.68-28.25-26.17-30.33v-8.62h78.79v8.62c-22.6,1.78-25.27,3.86-25.27,30.33v51.73c6.24-1.78,12.49-5.95,21.11-13.97,16.95-16.65,35.68-35.98,48.17-52.03,8.62-10.11,8.32-13.38-5.35-15.16l-6.24-.89v-8.62h72.25v8.62c-21.7,2.08-29.43,5.05-48.17,22.3-12.49,11.3-32.11,31.22-50.84,50.55,21.7,27.95,52.63,63.63,68.39,81.76,15.16,16.35,21.7,19.62,35.68,21.41v8.62h-48.17Z"/></g><g><path class="d" d="M584.02,432.06s2.4,2.83,5.9,2.83c2.2,0,4.03-1.33,4.03-3.5,0-4.93-11.36-4.16-11.36-11.49,0-3.53,3.1-6.3,7.53-6.3,2.5,0,6.7,1.14,6.7,4.33v1.93h-3.06v-1.1c0-1.23-1.76-2.13-3.64-2.13-2.53,0-4.13,1.4-4.13,3.17,0,4.76,11.33,3.7,11.33,11.43,0,3.6-2.8,6.7-7.46,6.7-5,0-7.8-3.5-7.8-3.5l1.96-2.37Z"/><polygon class="d" points="606.72 414.01 606.72 416.87 609.02 416.87 609.02 434.66 606.72 434.66 606.72 437.53 614.49 437.53 614.49 434.66 612.19 434.66 612.19 416.87 614.49 416.87 614.49 414.01 606.72 414.01"/><path class="d" d="M623.8,434.66h1.43c.47,0,.73-.27,.73-.73v-19.92h3.03l10.46,14.89c.87,1.27,1.97,3.2,1.97,3.2h.07s-.23-1.87-.23-3.2v-12.75c0-1.5,.63-2.13,2.17-2.13h3.33v2.86h-1.43c-.46,0-.73,.23-.73,.73v19.92h-3l-10.49-14.89c-.87-1.27-1.94-3.2-1.94-3.2h-.07s.2,1.89,.2,3.2v12.76c0,1.5-.63,2.13-2.13,2.13h-3.36v-2.87Z"/><path class="d" d="M667.59,413.61c3.16,0,8.83,1.33,8.83,5.1v2.3h-3.06v-1.33c0-1.97-3.33-2.97-5.7-2.97-4.73,0-8.39,3.56-8.39,8.86s3.7,9.23,8.5,9.23,7.43-3.2,7.43-3.2l1.8,2.4s-3.33,3.93-9.26,3.93c-7.03,0-11.93-5.43-11.93-12.36s5.06-11.96,11.8-11.96"/><path class="d" d="M688.09,416.87h-2.16v-2.87h13.82c1.5,0,2.13,.63,2.13,2.13v2.96h-3.03v-1.5c0-.5-.26-.73-.73-.73h-6.7v7.36h8.23v2.86h-8.23v6.83c0,.46,.26,.73,.73,.73h6.86c.46,0,.73-.26,.73-.73v-1.5h3.07v2.97c0,1.5-.63,2.13-2.13,2.13h-10.46c-1.5,0-2.13-.63-2.13-2.13v-18.52Z"/><path class="d" d="M727.97,434.66h5.17v-15.19c0-.73,.04-1.46,.04-1.46h-.07s-.26,.53-1.1,1.36l-2.2,2.16-1.99-2.07,5.62-5.46h3.03v20.65h5.13v2.87h-13.63v-2.87Z"/><path class="d" d="M760.37,424.24c.8,0,2.5-1.97,2.5-4.07s-1.73-3.53-4.13-3.53c-2.57,0-4.06,1.47-4.06,3.33,0,2.06,1.76,2.86,3.86,3.7,.47,.2,1.43,.57,1.83,.57m-1.73,10.66c2.46,0,4.76-1.63,4.76-3.97,0-2.07-1.76-2.96-3.96-3.86-.9-.37-2.16-.87-2.43-.87-.83,0-3.2,1.93-3.2,4.43,0,2.63,2.27,4.26,4.83,4.26m-4.33-10.13v-.07s-2.9-1.53-2.9-4.8,2.6-6.3,7.33-6.3,7.36,2.7,7.36,6.37c0,3.46-2.83,5.6-2.83,5.6v.07c2.13,1.23,3.5,2.87,3.5,5.4,0,3.67-3.33,6.89-8.13,6.89-4.43,0-8.2-2.76-8.2-7.13,0-3.87,3.87-6.03,3.87-6.03"/><path class="d" d="M788.77,423.04c0-3.03-2.26-6.4-5.27-6.4-2.73,0-4.33,2.1-4.33,4.83s1.8,4.86,4.83,4.86c2.63,0,4.76-1.6,4.76-3.3m-10.59,11.06s1.5,.8,3.36,.8c4.3,0,6.57-4.07,7.07-8.1h-.06c-.97,1.47-3.13,2.3-5.2,2.3-4.46,0-7.43-3.33-7.43-7.63,0-4.63,3.16-7.87,7.56-7.87,4.99,0,8.79,4.27,8.79,10.83,0,6.13-3.3,13.49-10.6,13.49-2.8,0-4.56-.97-4.56-.97l1.06-2.86Z"/><path class="d" d="M815.07,425.73c0-5.1-1.1-9.09-4.93-9.09s-4.96,4-4.96,9.09,1.1,9.16,4.96,9.16,4.93-4.03,4.93-9.16m-13.25,0c0-6.76,2.03-12.13,8.33-12.13s8.3,5.37,8.3,12.13-2.03,12.19-8.3,12.19-8.33-5.4-8.33-12.19"/></g><path class="d" d="M268.59,349.52v-35.39s-66.29-20.83-107.25,2.99c-3.18,1.85-10.1,5.61-12.23,5.61s-9.05-3.76-12.23-5.61c-40.96-23.81-107.25-2.99-107.25-2.99v35.39h238.95Z"/><path class="d" d="M108.1,46.8c11.66-6.45,25.19-13.16,41.03-16.38,15.84,3.22,29.37,9.93,41.03,16.38,5.93,3.73,2.28,6.77-1.77,12.16-21.19,28.21-31.59,41.81-39.26,54.31-7.68-12.5-18.07-26.11-39.26-54.31-4.05-5.39-7.7-8.43-1.77-12.16"/><path class="d" d="M120.33,236.4c-.07,1.56-.16,3.13-.26,4.72-.45,7.06-2.23,11.47-6.87,12.93-.95,.3-4.75,.41-7.77,.61-38.69,2.57-75.29,12.36-75.29,12.36,.03-8.26,.15-21.46,.35-28.84,.79-19.8,2.16-37.14,4.19-52.98,2.73-21.32,6.66-39.82,11.87-56.1,.61-1.69,1.22-3.38,1.86-5.02,1.89-4.79,3.94-9.32,6.15-13.62,5.78-10.45,8.57-17.04,16.8-8.45,16.11,17.75,31.04,37.96,40.08,56.41,4.35,9.07,7.51,18.14,8.62,26.66,.15,1.43,.27,2.84,.27,4.2v47.13Z"/><path class="d" d="M178.15,236.4c.07,1.56,.16,3.13,.26,4.72,.45,7.06,2.23,11.47,6.87,12.93,.95,.3,4.75,.41,7.77,.61,38.69,2.57,75.29,12.36,75.29,12.36-.03-8.26-.15-21.46-.35-28.84-.79-19.8-2.16-37.14-4.19-52.98-2.73-21.32-6.66-39.82-11.87-56.1-.61-1.69-1.22-3.38-1.86-5.02-1.89-4.79-3.94-9.32-6.15-13.62-5.78-10.45-8.57-17.04-16.8-8.45-16.11,17.75-31.04,37.96-40.08,56.41-4.35,9.07-7.51,18.14-8.62,26.66-.15,1.43-.27,2.84-.27,4.2v47.13Z"/><g><path class="d" d="M186.59,270.61l-.15-.02c-2.75,0-12.29-.94-14.99-1.72-6.29-1.83-8.24-7.43-8.85-16.27-.3-4.23-.49-8.43-.63-12.38v-52.89c0-10.61,3.31-22.21,8.62-33.95,11.9-26.28,33.9-53.3,51.73-71.83,1.97-2.05,3.89-4,5.74-5.82,7.03-6.95,15.4-3.49,23.52,10.04,3,5.38,5.78,11.06,8.35,17.06,9.27,21.66,15.71,47.3,19.69,78.4,3.36,26.26,4.99,56.3,5.12,94.47v90.11H13.51v-90.11c.15-38.17,1.78-68.21,5.14-94.47,3.98-31.09,10.42-56.74,19.69-78.4,2.57-6,5.35-11.68,8.35-17.06,8.11-13.53,16.49-16.99,23.51-10.04,1.85,1.83,3.77,3.78,5.74,5.82,17.83,18.54,39.83,45.56,51.73,71.83,5.32,11.74,8.62,23.33,8.62,33.95v52.89c-.14,3.95-.33,8.15-.63,12.38-.61,8.84-2.56,14.43-8.85,16.27-2.7,.79-12.25,1.72-14.99,1.72-.08,0-.09,.01-.15,.02M93.91,36.66c15.69-10.19,33.91-17.7,55.23-22.78,21.32,5.08,39.53,12.59,55.23,22.78,10.58,7.38,11.19,13.29,5.11,21.18-32.62,42.29-50.01,67.08-60.34,86.8-10.33-19.72-27.71-44.5-60.34-86.8-6.08-7.89-5.47-13.79,5.11-21.18m204.35,241.74v-.24c-.12-39.04-1.79-69.78-5.24-96.75-4.14-32.35-10.9-59.18-20.67-82-11.85-27.7-28.45-49.73-50.02-66.44-10.95-8.49-23.2-15.59-36.78-21.35-10.8-4.58-22.39-8.36-34.9-11.25l-1.52-.35-1.52,.35c-12.51,2.89-24.09,6.67-34.89,11.25-13.58,5.76-25.83,12.87-36.78,21.35-21.57,16.72-38.16,38.74-50.02,66.44-9.77,22.83-16.53,49.65-20.67,82C1.79,208.37,.13,239.11,0,278.15v.24c0,1.09,0,11.63,0,89.59v13.23H298.26v-13.23c0-77.96,0-88.5,0-89.59"/><path class="d" d="M8.92,307.23l-5.05-16.53c36.91-14.97,89.86-21.52,145.26-21.52s108.32,6.54,145.23,21.5l-5.05,16.53c-35.36-14.33-86.46-20.52-140.18-20.52s-104.84,6.19-140.21,20.53Z"/></g></g></g></svg>